<svg id="Layer_1" data-name="Layer 1" xmlns="http://www.w3.org/2000/svg" viewBox="0 0 32 32"><defs><style>.cls-1{fill:#e91e63;}</style></defs><path class="cls-1" d="M28.19238,6.8108A12.98537,12.98537,0,0,0,11.60546,5.30849a.625.625,0,0,0,.71206,1.02744A11.70286,11.70286,0,0,1,16.177,4.59055a8.09032,8.09032,0,0,0-.70693,1.03994,17.661,17.661,0,0,0-1.92375,6.13106A.625.625,0,1,0,14.783,11.944c.07613-.51562.16744-1.01806.27231-1.50324h7.89243a26.25024,26.25024,0,0,1,.55188,4.93749H21.74932a.625.625,0,0,0,0,1.25h1.75025a26.25024,26.25024,0,0,1-.55188,4.93749H19.85426a.625.625,0,0,0,0,1.25h2.78231a15.59749,15.59749,0,0,1-.58563,1.69856c-.79193,1.91-1.80649,3.06344-2.81581,3.21994q-.2325.005-.46512.00113c-1.76356-.26532-3.43531-3.54719-4.03312-7.99968a.625.625,0,1,0-1.23887.16637,18.2349,18.2349,0,0,0,1.91012,6.36506,8.27667,8.27667,0,0,0,.75437,1.131,11.57732,11.57732,0,0,1-4.17493-1.96481.625.625,0,1,0-.74719,1.00206,12.98584,12.98584,0,0,0,7.75881,2.56787h.00206q.44438,0,.89069-.03044a13.00021,13.00021,0,0,0,8.30043-22.162Zm.38381,2.37994H23.93232a17.2378,17.2378,0,0,0-.72675-2.17732,9.83775,9.83775,0,0,0-1.38218-2.42056A11.73545,11.73545,0,0,1,27.3085,7.69474,11.89825,11.89825,0,0,1,28.57619,9.19074Zm-13.20967,0a13.12187,13.12187,0,0,1,1.18593-2.935c.74594-1.29131,1.61513-2.0025,2.4475-2.0025,1.08537,0,2.19737,1.18056,3.05087,3.23893a15.60055,15.60055,0,0,1,.58563,1.69857Zm8.857,1.25h5.13218a11.66173,11.66173,0,0,1,1.37756,4.9375H24.74975A27.78792,27.78792,0,0,0,24.22357,10.44073Zm.52619,6.1875h5.98355a11.66078,11.66078,0,0,1-1.37756,4.93749H24.22357A27.78861,27.78861,0,0,0,24.74976,16.62823Zm2.55868,7.68343a11.67552,11.67552,0,0,1-5.46462,3.07662A9.88912,9.88912,0,0,0,23.20557,24.993a17.2302,17.2302,0,0,0,.72675-2.17731h4.64387A11.88522,11.88522,0,0,1,27.30844,24.31166Z"/><path class="cls-1" d="M7.2331,15.55812A.62469.62469,0,1,0,7.675,15.375.62709.62709,0,0,0,7.2331,15.55812Z"/><path class="cls-1" d="M15.3537,18.42169a5.24936,5.24936,0,0,0,4.14244-2.04494.62491.62491,0,0,0,0-.76012,5.24945,5.24945,0,0,0-4.14244-2.04494H13.08464L10.79446,8.06338a.625.625,0,0,0-.57707-.38506H7.85733a.625.625,0,0,0-.625.625v5.26837H4.95152l-1.59668-1.913a.62517.62517,0,0,0-.47988-.2245H.625a.625.625,0,0,0-.54313.93425L2.148,15.99669.0819,19.62493a.625.625,0,0,0,.54313.93432h2.25a.62485.62485,0,0,0,.47981-.2245l1.59675-1.913H7.2324v5.27493a.62507.62507,0,0,0,.625.625h2.36006a.625.625,0,0,0,.57718-.38531l2.29025-5.51462H15.3537ZM9.8004,8.92832,11.731,13.57169H8.48233V8.92832ZM4.75615,17.17169a.63924.63924,0,0,0-.12087-.00606.62534.62534,0,0,0-.45032.22381L2.58259,19.30919H1.70015l1.71019-3.00325a.62486.62486,0,0,0,0-.6185L1.70015,12.68419h.88244L4.185,14.60394a.62487.62487,0,0,0,.45175.22388.63435.63435,0,0,0,.11988-.00613H15.35376a3.996,3.996,0,0,1,2.81781,1.175,3.996,3.996,0,0,1-2.8178,1.175Zm5.04412,5.89993H8.4824V18.41787H11.733Z"/><path class="cls-1" d="M.71878,16.625a.62521.62521,0,1,0-.44188-.18312A.62684.62684,0,0,0,.71878,16.625Z"/><path class="cls-1" d="M3,16.625H5.65627a.625.625,0,0,0,0-1.25H3a.625.625,0,1,0,0,1.25Z"/><path class="cls-1" d="M5.0449,15.375H1.18753a.625.625,0,0,0,0,1.25H5.0449a.625.625,0,0,0,0-1.25Z"/></svg>