<svg id="Layer_1" data-name="Layer 1" xmlns="http://www.w3.org/2000/svg" viewBox="0 0 32 32"><defs><style>.cls-1{fill:#e91e63;}</style></defs><path class="cls-1" d="M14.23174,11.69941a2.78822,2.78822,0,0,0,.74733-1.87435A7.3106,7.3106,0,0,0,13.71429,5.214a3.015,3.015,0,0,0-1.91541-1.33314,1.21105,1.21105,0,0,0-1.35283.48171,1.5536,1.5536,0,0,0,.20352,1.53049,1.50294,1.50294,0,0,0,.61884.30181c.32617.10377.67461.1433.99179.2663a.42958.42958,0,0,1,.18553.38332.46553.46553,0,0,1-.37524.21751,2.18268,2.18268,0,0,1-1.83828-2.504,1.3291,1.3291,0,0,1,1.86341-.73662,3.56326,3.56326,0,0,1,1.29669.78137,7.23582,7.23582,0,0,1,1.95217,7.00587,1.27183,1.27183,0,0,1-.212.54153,1.35188,1.35188,0,0,0-.12031,1.44023,9.0922,9.0922,0,0,1-.22575,6.68875,6.15993,6.15993,0,0,1-2.36956,2.65847,4.1769,4.1769,0,0,1-3.36137.32771,8.8481,8.8481,0,0,1-6.52262-6.2002A4.114,4.114,0,0,1,3.369,12.78465c-.28087-.30813-.56356-.59454-.819-.90345A3.92731,3.92731,0,0,1,1.54931,9.65306,2.95181,2.95181,0,0,1,3.15368,6.91845a5.02548,5.02548,0,0,1,4.046-.49738A10.94215,10.94215,0,0,1,13.896,11.20643C13.997,11.3523,14.09584,11.49974,14.23174,11.69941Zm-8.0362,5.60932a4.77916,4.77916,0,0,0,2.178,1.40154,1.56489,1.56489,0,0,0,2.16819-1.3796,11.58274,11.58274,0,0,0-.01067-1.88405c-.0076-.30971-.15157-.42681-.48822-.40522A9.19739,9.19739,0,0,1,4.73717,13.725a.37858.37858,0,0,0-.59549.12551,3.8253,3.8253,0,0,0-.73235,2.05293,6.83732,6.83732,0,0,0,1.59622,4.49738,6.30088,6.30088,0,0,0,3.51452,2.53881,3.04633,3.04633,0,0,0,3.88272-1.82923,5.39865,5.39865,0,0,0,.24158-.63147,14.15654,14.15654,0,0,0,.41344-5.1431c-.0188-.30826-.06866-.61463-.10884-.96231l-1.679.54614a3.08827,3.08827,0,0,1,.16.46583,12.96615,12.96615,0,0,1,.29046,2.0359,1.99594,1.99594,0,0,1-2.0018,1.93831A4.18069,4.18069,0,0,1,6.19554,17.30873ZM4.67082,6.82228A2.20512,2.20512,0,0,0,2.15094,8.72767a3.77329,3.77329,0,0,0,1.483,3.49172.53026.53026,0,0,0,.67893.075,3.69671,3.69671,0,0,1,3.2558-.32586,30.31538,30.31538,0,0,1,2.65319,1.61023c.145.08852.32619.22827.46236.20134.57095-.11292,1.13346-.272,1.69424-.4312a.35956.35956,0,0,0,.24726-.53363,10.17728,10.17728,0,0,0-.683-1.51381A9.69752,9.69752,0,0,0,7.50866,7.727,8.20618,8.20618,0,0,0,4.67082,6.82228Zm.65469,6.23224a7.70849,7.70849,0,0,0,4.497.74395C9.1973,12.41924,6.88927,12.17394,5.32551,13.05452Z"/><path class="cls-1" d="M17.76154,11.6929c.1555-.2315.28224-.43015.41874-.62185a10.9129,10.9129,0,0,1,6.547-4.636,5.39193,5.39193,0,0,1,3.57927.193,3.88823,3.88823,0,0,1,1.77583,1.54875,2.87386,2.87386,0,0,1-.32326,3.25573,16.16173,16.16173,0,0,1-1.11152,1.35391,4.71726,4.71726,0,0,1,.35,5.47851,8.8565,8.8565,0,0,1-6.625,5.1157,4.401,4.401,0,0,1-4.56006-2.08677A7.133,7.133,0,0,1,16.52093,16.034c.13056-1.02022.43192-2.01838.64862-3.02812a.48268.48268,0,0,0-.01725-.32983,5.45847,5.45847,0,0,1-.59946-4.17484A6.96434,6.96434,0,0,1,18.31845,4.8583a2.81561,2.81561,0,0,1,2.39841-1.12085A1.15,1.15,0,0,1,21.80219,5.079,2.23627,2.23627,0,0,1,20.02028,7.044c-.15164.025-.3303-.11368-.49647-.17671.08673-.15327.1385-.3878.26734-.4432a3.37461,3.37461,0,0,1,.91394-.21685c.59008-.07291.86983-.41568.94731-1.21811a.9459.9459,0,0,0-.734-1.084,1.85609,1.85609,0,0,0-1.434.22438A4.23517,4.23517,0,0,0,17.571,6.50213a7.04528,7.04528,0,0,0-.50327,3.75277A2.4803,2.4803,0,0,0,17.76154,11.6929Zm1.30139,2.69024a1.30062,1.30062,0,0,0-.07874.27781c-.0348,1.08166-.12,2.16561-.07932,3.24472a8.20124,8.20124,0,0,0,.79117,3.44512A2.92027,2.92027,0,0,0,22.92512,23.038a5.29784,5.29784,0,0,0,3.15435-1.61517A7.37388,7.37388,0,0,0,28.565,15.824a3.60883,3.60883,0,0,0-.71618-1.96261c-.11435-.15822-.23031-.351-.51013-.18548a9.40017,9.40017,0,0,1-5.47238,1.3678c-.23988-.0149-.378.05894-.38487.31321a11.76816,11.76816,0,0,0-.03452,1.9736,1.562,1.562,0,0,0,2.208,1.36457,4.00672,4.00672,0,0,0,1.75536-1.06214c.12136-.11749.23519-.24276.35248-.36445a4.15145,4.15145,0,0,1-3.00909,2.054,2.05493,2.05493,0,0,1-2.41826-1.51191,4.324,4.324,0,0,1-.02481-1.47005,10.695,10.695,0,0,1,.37595-1.4352ZM27.387,6.82008a2.64724,2.64724,0,0,0-.4207.05163,11.98708,11.98708,0,0,0-6.32616,3.61144A5.69185,5.69185,0,0,0,19.36,12.79206c-.07847.29117-.011.477.26487.56566q.68447.22,1.37942.40679a.93086.93086,0,0,0,.81743-.21555A18.29071,18.29071,0,0,1,24.43432,11.96a3.71722,3.71722,0,0,1,3.25562.34229.5092.5092,0,0,0,.64114-.06829,4.21481,4.21481,0,0,0,1.52017-2.63636A2.31262,2.31262,0,0,0,27.387,6.82008Zm-.65369,6.28454c-1.57159-.95757-4.02394-.683-4.57911.74482A9.19532,9.19532,0,0,0,26.73332,13.10462Z"/><path class="cls-1" d="M28.62545,5.91549a1.53921,1.53921,0,0,1-1.60569-1.62405,1.62087,1.62087,0,1,1,3.24152.03013A1.539,1.539,0,0,1,28.62545,5.91549Zm1.46416-1.6137a1.4491,1.4491,0,0,0-2.89818-.01311,1.4491,1.4491,0,0,0,2.89818.01311Z"/><path class="cls-1" d="M23.29592,25.7475a2.035,2.035,0,0,1,.32427-.05106c.43619-.00646.87285-.01193,1.30877.00112.6538.01957,1.03573.26688,1.12259.70416.09115.45888-.097.7394-.76218,1.08444.47664.53148.48772,1.38132,1.266,1.69011a.685.685,0,0,1-1.0792-.28736,10.23926,10.23926,0,0,0-.545-1.03639c-.09389-.13958-.32356-.18789-.49156-.27766a4.05973,4.05973,0,0,0-.16071.41211,1.037,1.037,0,0,0-.00435.26954c-.00012.6468-.00012.6468.54993,1.00778H21.55022l-.01124-.07841.43523-.16974c-.09323-.64844-.304-.937-.68642-.952-.93332-.03663-.96357-.01395-1.1797.91419l.50843.189-.00928.09378h-1.185a7.24584,7.24584,0,0,0,.55412-.89271c.33127-.74058.61871-1.50072.92728-2.25155.06007-.14617.13515-.28617.25305-.53329.12022.23609.19787.37089.25957.51263.372.85458.756,1.70446,1.10378,2.56884.196.487.50013.55035,1.02512.393a.34969.34969,0,0,0,.1612-.274c.01242-.84207.02778-1.68535-.01081-2.52583C23.688,26.09285,23.45185,25.938,23.29592,25.7475Zm.979,1.63873a3.68333,3.68333,0,0,0,.89858-.18425.66051.66051,0,0,0,.26064-.906c-.1535-.40206-.524-.42064-.87579-.38968-.44238.03892-.2514.40167-.27768.63693C24.25445,26.77819,24.27494,27.01837,24.27494,27.38623Zm-3.723.3697h.94072l-.49443-1.12724Z"/><path class="cls-1" d="M15.81645,29.27657H14.601c.52852-.12648.46647-.543.49516-.90737.06-.76169.12-1.52337.18069-2.29406l-.49514-.15589a.74562.74562,0,0,1,1.20939.25376c.30632.69942.60843,1.40069.95079,2.18979.36232-.76839.68664-1.45362,1.00865-2.13994.25213-.53739.658-.65369,1.3129-.289-.65872.01623-.52394.4378-.52477.78946-.0013.55665.008,1.11348-.00339,1.6699-.00716.35054-.04643.70176.404.877H17.68191c.70933-.17105.47268-.725.48536-1.15594a9.30839,9.30839,0,0,0-.07881-1.64188l-1.24861,2.69634-.13862-.00114L15.577,26.49613l-.0799.00807c-.05721.73673-.14783,1.47346-.1479,2.2102C15.34921,28.89641,15.64343,29.07845,15.81645,29.27657Z"/><path class="cls-1" d="M9.166,25.76108h1.55244c-.94208.34916-.44505,1.03552-.50213,1.60406l1.408-1.33855-.3415-.17046.00922-.09041h1.35108c-.79688.16239-1.22218.80694-1.79224,1.33893.71678.69374,1.15792,1.59507,2.14307,2.15647H11.2634l-.01661-.09122.47732-.17557L10.49679,27.4427c-.57373.33742-.33657.856-.33611,1.27913.00018.16658.2652.33289.43089.52382H9.138c.62948-.13516.465-.62729.46915-1.03514C9.61272,27.669,9.6,27.12716,9.611,26.58579,9.6181,26.23413,9.65064,25.88473,9.166,25.76108Z"/><path class="cls-1" d="M30.43305,29.27246H28.825l-.02218-.10252.48052-.17692-1.21656-1.53755c-.504.22131-.33719.62513-.38213.96217-.05512.41344.06134.6928.56206.72763l-.0546.10495H26.69365c.60726-.12014.48225-.58266.48446-.97519.00332-.5867-.01262-1.17386.00625-1.76.01122-.3484-.01691-.63472-.48622-.68313a3.17315,3.17315,0,0,1,1.4845-.08151c-.86549.35258-.35858,1.04079-.50448,1.55923l.09741.05509L29.18623,26.028l-.34313-.17617L28.858,25.761h1.36551c-.79989.15457-1.22794.7961-1.81532,1.33988A15.90586,15.90586,0,0,0,30.43305,29.27246Z"/><path class="cls-1" d="M3.65228,26.43093A.81961.81961,0,0,0,2.56016,25.934a.73429.73429,0,0,0-.46154.40367c-.03466.122.16242.36922.31562.472a8.00972,8.00972,0,0,0,.88559.4412.9934.9934,0,0,1,.66128,1.02244,1.10649,1.10649,0,0,1-.8898.95941,3.05723,3.05723,0,0,1-.89406.02827c-.61643-.06461-.80119-.47646-.4643-1.12866.08181.18863.1565.32718.2029.47463a.65975.65975,0,0,0,.67067.49943.89684.89684,0,0,0,.87718-.44593A.54948.54948,0,0,0,3.21089,27.89c-.302-.19488-.63093-.34757-.94537-.52357-.37119-.20775-.67637-.46723-.62771-.94867a.98407.98407,0,0,1,.89395-.769,2.7275,2.7275,0,0,1,.76142.00248C3.75734,25.71143,3.82856,25.85186,3.65228,26.43093Z"/><path class="cls-1" d="M7.73016,25.7487c-.71131.23008-.467.81018-.48556,1.27641a11.297,11.297,0,0,0,.00583,1.30571c.01728.2268.13891.63821.20433.63641a3.23982,3.23982,0,0,0,.99939-.21693c.128-.04659.20544-.2322.32826-.38177.14294.79508.0357.93146-.68828.93363-.62293.00187-1.24587.00039-1.91647-.05115.72666-.24588.46813-.81564.49328-1.27521.02131-.38931.00765-.78074.00354-1.17118-.0042-.39824.1397-.86841-.55091-.95026l.08972-.10566Z"/><path class="cls-1" d="M5.4259,29.00048l.48995.18675-.01213.08386h-1.488c.55106-.12541.43851-.54911.44056-.91.00334-.58709-.00379-1.17425.00246-1.76129.00382-.35839.05852-.73925-.58674-.66027l.09807-.14159h1.4934c-.56753.11508-.43385.55421-.43612.919C5.42258,27.48233,5.4259,28.24772,5.4259,29.00048Z"/><path class="cls-1" d="M28.28709,4.50521l-.08287.70978-.133-.00662V3.42229c.40317.05741.91294-.215,1.2107.24192.11992.184-.03027.544-.05752.82384l-.14537-.001.34247.75766C28.89764,5.091,29.025,4.18585,28.28709,4.50521ZM28.2783,4.3186a7.146,7.146,0,0,0,.81147-.20855c.03547-.013.02787-.33293-.02018-.35109a5.9794,5.9794,0,0,0-.79129-.19488Z"/></svg>