<svg id="Layer_1" data-name="Layer 1" xmlns="http://www.w3.org/2000/svg" viewBox="0 0 32 32"><defs><style>.cls-1{fill:#e91e63;}</style></defs><path class="cls-1" d="M19.328,5.81188a.46232.46232,0,0,0,.417-.82529A8.35468,8.35468,0,0,0,9.37981,17.56689a.46233.46233,0,0,0,.72974-.56786A7.43,7.43,0,0,1,19.328,5.81188Z"/><path class="cls-1" d="M22.81573,8.475a.46238.46238,0,0,0-.20428.62112,7.43,7.43,0,0,1-11.18783,9.217.46233.46233,0,1,0-.56787.72974A8.35471,8.35471,0,0,0,23.43692,8.67924.4625.4625,0,0,0,22.81573,8.475Z"/><path class="cls-1" d="M20.892,6.87314c.11546.102.2295.20928.33892.31864s.21661.2234.31863.33885a.46233.46233,0,1,0,.69288-.61231c-.11453-.12963-.23486-.25761-.35766-.38034s-.25076-.24312-.38034-.35766a.46235.46235,0,0,0-.61243.69282Z"/><path class="cls-1" d="M26.89083,11.63335l-.60824-.99746a.65086.65086,0,0,1-.08716-.43952l.18129-1.15194A1.5683,1.5683,0,0,0,25.74746,7.526l-.94266-.68567a.65064.65064,0,0,1-.24947-.37282L24.28083,5.333a1.56852,1.56852,0,0,0-1.16014-1.16027L21.98613,3.8982a.6505.6505,0,0,1-.37282-.24947l-.68579-.94291a1.568,1.568,0,0,0-1.51823-.62932L18.257,2.25779a.65067.65067,0,0,1-.43946-.08716l-.99765-.60831a1.56883,1.56883,0,0,0-1.63973,0l-.99746.60825a.651.651,0,0,1-.43953.08716l-1.152-.1813a1.56838,1.56838,0,0,0-1.51829.62933l-.68567.94266a.65084.65084,0,0,1-.37288.24947l-1.1345.2745A1.56862,1.56862,0,0,0,7.71955,5.33253L7.445,6.46709a.65046.65046,0,0,1-.24948.37282l-.9429.68579a1.56808,1.56808,0,0,0-.62933,1.51823l.1813,1.15238a.65058.65058,0,0,1-.08717.43946l-.60836.99764a1.569,1.569,0,0,0,.00006,1.63967l.60824.99746a.65089.65089,0,0,1,.08717.43953l-.1813,1.152a1.56823,1.56823,0,0,0,.62926,1.51835l.94266.68567a.6505.6505,0,0,1,.24948.37282l.2745,1.1345a1.5685,1.5685,0,0,0,1.16014,1.16026l.47373.11466-3.2061,7.15194a.46232.46232,0,0,0,.47675.64818L9.20344,28.34l1.48618,2.1311a.46247.46247,0,0,0,.37911.19788c.01436,0,.02891-.00068.0434-.002a.4624.4624,0,0,0,.37861-.27117l3.27447-7.30463.41493.253a1.56875,1.56875,0,0,0,1.63973,0l.42984-.26211,3.2786,7.31375a.46222.46222,0,0,0,.37862.27117q.02172.002.0434.002a.46238.46238,0,0,0,.37911-.19787L22.81561,28.34l2.5798.30847a.46233.46233,0,0,0,.47676-.64819l-3.20789-7.15588.45591-.11028A1.5686,1.5686,0,0,0,24.28046,19.574L24.555,18.4394a.65056.65056,0,0,1,.24947-.37282l.94291-.68579a1.568,1.568,0,0,0,.62932-1.51823l-.18129-1.15237a.65061.65061,0,0,1,.08716-.43946l.60837-.99765h0A1.56893,1.56893,0,0,0,26.89083,11.63335ZM10.981,29.27241,9.80318,27.58355a.4621.4621,0,0,0-.4341-.19461l-2.04442.24442L10.24578,21.117a.64841.64841,0,0,1,.1408.14067l.68579.94291a1.58859,1.58859,0,0,0,.21822.24306L9.75306,25.87348a.46231.46231,0,1,0,.84372.37825l1.5321-3.41767a1.58061,1.58061,0,0,0,.46178-.00419l1.15231-.18129a.64883.64883,0,0,1,.20663.00135Zm11.669-1.88347a.462.462,0,0,0-.43409.19461L21.038,29.27241l-2.96983-6.62506a.64976.64976,0,0,1,.1887.00135l1.15194.1813a1.58168,1.58168,0,0,0,.48014.00136l1.53327,3.42038a.46231.46231,0,1,0,.84372-.37825l-1.54338-3.44294a1.59134,1.59134,0,0,0,.2046-.22993l.68567-.94266a.64973.64973,0,0,1,.15565-.15159L24.6944,27.6333Zm3.45151-14.5973-.60836.99765a1.57665,1.57665,0,0,0-.21107,1.06453l.18129,1.15231a.64737.64737,0,0,1-.25983.62674l-.943.68585a1.57654,1.57654,0,0,0-.60424.90308l-.27456,1.13456a.64761.64761,0,0,1-.479.479l-1.13456.2745a1.57632,1.57632,0,0,0-.90315.6043l-.68566.94266a.64713.64713,0,0,1-.6268.25977l-1.152-.1813a1.57689,1.57689,0,0,0-1.06472.21107l-.99746.60824a.6478.6478,0,0,1-.67685,0l-.99765-.6083a1.5755,1.5755,0,0,0-1.06459-.21107l-1.15237.18129a.64721.64721,0,0,1-.62674-.25982l-.68585-.94291a1.57662,1.57662,0,0,0-.90308-.60424L9.09668,19.835a.6476.6476,0,0,1-.479-.479l-.2745-1.1345a1.57619,1.57619,0,0,0-.60429-.90321l-.9426-.68572a.64736.64736,0,0,1-.25977-.6268l.1813-1.152a1.57678,1.57678,0,0,0-.21107-1.06466l-.60824-.99752a.64754.64754,0,0,1,0-.67685l.60836-.99765A1.57675,1.57675,0,0,0,6.718,10.05255l-.1813-1.15231a.64736.64736,0,0,1,.25983-.62673l.943-.68585a1.57657,1.57657,0,0,0,.60424-.90309L8.61826,5.55a.64761.64761,0,0,1,.479-.479l1.13456-.2745a1.57632,1.57632,0,0,0,.90315-.6043l.68566-.94266a.64717.64717,0,0,1,.6268-.25983l1.152.1813A1.57607,1.57607,0,0,0,14.66412,2.96l.99746-.60824a.6478.6478,0,0,1,.67685,0l.99765.6083a1.57588,1.57588,0,0,0,1.06459.21113L19.553,2.98988a.64763.64763,0,0,1,.62673.25983l.68586.9429a1.57654,1.57654,0,0,0,.90308.60424l1.13456.27456a.64759.64759,0,0,1,.479.479l.2745,1.1345a1.57618,1.57618,0,0,0,.6043.90321l.94266.68566a.64738.64738,0,0,1,.25977.6268l-.1813,1.152a1.57667,1.57667,0,0,0,.21107,1.06466l.60824.99752A.64777.64777,0,0,1,26.10142,12.79164Z"/><path class="cls-1" d="M10.817,11.88615l2.05681,1.90209-.546,2.74778a.83823.83823,0,0,0,.81839.99975.83613.83613,0,0,0,.40913-.10794l2.44455-1.36832,2.44456,1.36832A.83541.83541,0,0,0,19.672,16.536l-.546-2.74772,2.05681-1.90209a.83545.83545,0,0,0-.4688-1.443l-2.782-.32986-1.1734-2.54386a.83548.83548,0,0,0-1.5173,0l-1.1734,2.54393-2.782.32985a.83541.83541,0,0,0-.46886,1.4429Zm3.61671-.88508a.46251.46251,0,0,0,.36543-.26544L15.99994,8.1324l1.20077,2.60323a.46238.46238,0,0,0,.36542.26544l2.84691.33756L18.3082,13.2851a.46238.46238,0,0,0-.13956.42954l.55868,2.81183-2.50164-1.40025a.46206.46206,0,0,0-.4516,0l-2.50164,1.40025.55868-2.81183a.46219.46219,0,0,0-.13956-.42954l-2.10484-1.94647Z"/></svg>