<svg id="Layer_1" data-name="Layer 1" xmlns="http://www.w3.org/2000/svg" viewBox="0 0 32 32"><defs><style>.cls-1{fill:#e91e63;}.cls-2{fill:none;stroke:#e91e63;stroke-linecap:round;stroke-linejoin:round;stroke-width:0.75px;}</style></defs><path class="cls-1" d="M14.76581,21.66145a.62324.62324,0,1,0-.88108,0,.62363.62363,0,0,0,.88108,0Zm0,0"/><path class="cls-1" d="M7.28061,31.74105a.62253.62253,0,0,0,.879.00513l3.02-2.975a1.88253,1.88253,0,0,0,.44323-1.93309l.64953-.62641a1.8579,1.8579,0,0,1,1.2972-.52414H21.85a5.57686,5.57686,0,0,0,3.9102-1.5884c.04315-.04228-.32889.39611,5.64914-6.74859A2.49162,2.49162,0,0,0,27.61775,14.117l-3.67531,3.77749a2.50408,2.50408,0,0,0-1.93668-.92726H15.06a8.0381,8.0381,0,0,0-3.11924-.62274A7.70653,7.70653,0,0,0,4.91682,20.3271a1.86115,1.86115,0,0,0-1.666.51628L.2877,23.81534a.6229.6229,0,0,0-.00086.87859Zm4.65981-14.15078a6.79987,6.79987,0,0,1,2.74229.57071.62356.62356,0,0,0,.24976.05234h7.07329a1.24568,1.24568,0,1,1,0,2.49135H16.92367a.6229.6229,0,0,0,0,1.2458h5.08209a2.49448,2.49448,0,0,0,2.49159-2.49167,2.52547,2.52547,0,0,0-.02189-.32547c3.55545-3.655,4.05686-4.16853,4.07812-4.19408a1.246,1.246,0,1,1,1.90234,1.60966l-5.58684,6.679A4.33743,4.33743,0,0,1,21.85,24.44206H13.56955a3.09763,3.09763,0,0,0-2.16239.87313l-.52936.51106L5.99805,20.94649a6.43159,6.43159,0,0,1,5.94237-3.35622ZM4.13255,21.72376a.62134.62134,0,0,1,.77119-.08762c.10771.06573-.20171-.21628,5.39478,5.373a.62361.62361,0,0,1,.00366.87765L7.72757,30.42313l-6.12009-6.167Zm0,0"/><path class="cls-1" d="M13.38424,6.36092l-.3584.09277a.81633.81633,0,0,1-.17969.02685.44791.44791,0,0,1-.44434-.438.453.453,0,0,1,.33887-.43848l.65625-.19238a1.83117,1.83117,0,0,1,.47852-.08643h.01269a.50462.50462,0,0,1,.50489.50488V9.57332a.5044.5044,0,1,1-1.00879,0Z"/><path class="cls-1" d="M14.82271,7.7281V7.71492A2.1851,2.1851,0,0,1,16.894,5.31209a2.16763,2.16763,0,0,1,2.05762,2.38965v.01318a2.18128,2.18128,0,0,1-2.07129,2.40283A2.15945,2.15945,0,0,1,14.82271,7.7281Zm3.08008,0V7.71492c0-.84277-.41211-1.48-1.02246-1.48s-1.00879.61719-1.00879,1.4668v.01318c0,.84961.40527,1.48047,1.02246,1.48047S17.90279,8.57136,17.90279,7.7281Z"/><path class="cls-1" d="M19.12838,7.7281V7.71492a2.08743,2.08743,0,1,1,4.1289-.01318v.01318A2.18127,2.18127,0,0,1,21.186,10.11775,2.15945,2.15945,0,0,1,19.12838,7.7281Zm3.08008,0V7.71492c0-.84277-.41211-1.48-1.02247-1.48s-1.00878.61719-1.00878,1.4668v.01318c0,.84961.40527,1.48047,1.02246,1.48047S22.20846,8.57136,22.20846,7.7281Z"/><path class="cls-1" d="M22.85789,4.207V4.2011a.51507.51507,0,0,1,.5166-.541.50815.50815,0,0,1,.51074.53467V4.2011a.516.516,0,0,1-.5166.54052A.50844.50844,0,0,1,22.85789,4.207Zm.71,0V4.2011c0-.14209-.07813-.26612-.19922-.26612-.127,0-.19336.1211-.19336.25977V4.2011c0,.14209.07813.26562.19922.26562C23.50144,4.46672,23.56785,4.34319,23.56785,4.207ZM23.23,5.57854l1.35059-1.84863a.15088.15088,0,0,1,.124-.06348.14171.14171,0,0,1,.1416.1416.14691.14691,0,0,1-.0332.09668L23.46238,5.75383a.15222.15222,0,0,1-.124.06348.14181.14181,0,0,1-.1416-.14209A.16685.16685,0,0,1,23.23,5.57854Zm.92773-.29V5.28264a.51449.51449,0,0,1,.51661-.541.50808.50808,0,0,1,.50976.53516v.00586a.51645.51645,0,0,1-.5166.541A.50809.50809,0,0,1,24.15769,5.2885Zm.71,0V5.28264c0-.14209-.0791-.26611-.20019-.26611-.12695,0-.19336.12109-.19336.26025v.00586c0,.14209.0791.26563.2002.26563C24.80027,5.54827,24.86765,5.42473,24.86765,5.2885Z"/><path class="cls-2" d="M24.55345,7.0891h0a6.7603,6.7603,0,1,1-2.011-4.20641"/></svg>