<?xml version="1.0" standalone="no"?>
<!DOCTYPE svg PUBLIC "-//W3C//DTD SVG 20010904//EN"
 "http://www.w3.org/TR/2001/REC-SVG-20010904/DTD/svg10.dtd">
<svg version="1.0" xmlns="http://www.w3.org/2000/svg"
 width="512.000000pt" height="512.000000pt" viewBox="0 0 512.000000 512.000000"
 preserveAspectRatio="xMidYMid meet">

<g transform="translate(0.000000,512.000000) scale(0.100000,-0.100000)"
fill="#000000" stroke="none">
<path d="M589 5109 c-269 -40 -490 -238 -566 -509 -17 -62 -18 -162 -18 -2040
0 -1878 1 -1978 18 -2040 55 -196 188 -359 362 -444 151 -74 80 -70 1168 -73
l977 -4 2 881 c1 484 2 895 2 913 l1 32 -263 5 -264 5 -29 33 -29 32 0 339 0
339 29 30 c17 16 44 32 62 36 17 3 134 6 259 6 l228 0 5 368 c5 391 12 456 61
598 109 321 336 520 681 596 125 28 719 39 777 15 71 -30 73 -38 76 -338 5
-391 21 -371 -313 -380 -256 -7 -301 -16 -373 -71 -26 -20 -53 -54 -70 -88
l-27 -55 -3 -322 -3 -322 371 -3 372 -3 34 -37 c25 -28 34 -47 34 -73 0 -56
-69 -611 -79 -638 -5 -13 -22 -34 -37 -46 -26 -20 -35 -21 -360 -21 l-334 0 0
-916 0 -915 603 4 c668 4 648 2 792 73 174 85 307 248 362 444 17 62 18 162
18 2040 0 1878 -1 1978 -18 2040 -68 242 -247 423 -492 497 -57 16 -167 18
-2010 19 -1072 1 -1975 -2 -2006 -7z"/>
</g>
</svg>
