<?xml version="1.0" standalone="no"?>
<!DOCTYPE svg PUBLIC "-//W3C//DTD SVG 20010904//EN"
 "http://www.w3.org/TR/2001/REC-SVG-20010904/DTD/svg10.dtd">
<svg version="1.0" xmlns="http://www.w3.org/2000/svg"
 width="512.000000pt" height="512.000000pt" viewBox="0 0 512.000000 512.000000"
 preserveAspectRatio="xMidYMid meet">

<g transform="translate(0.000000,512.000000) scale(0.100000,-0.100000)"
fill="#000000" stroke="none">
<path d="M904 4355 c-351 -54 -642 -270 -795 -590 -56 -117 -85 -215 -99 -340
-13 -120 -13 -1610 0 -1730 14 -125 43 -223 99 -340 155 -324 443 -536 801
-590 142 -22 3158 -22 3300 0 358 54 646 266 801 590 56 117 85 215 99 340 13
120 13 1610 0 1730 -14 125 -43 223 -99 340 -155 324 -443 536 -801 590 -131
20 -3178 20 -3306 0z m1728 -1406 c381 -193 703 -361 716 -372 26 -25 29 -58
5 -79 -16 -14 -1382 -667 -1427 -682 -11 -4 -29 0 -42 9 l-24 15 0 718 c0 545
3 721 12 730 7 7 24 12 39 12 16 0 314 -145 721 -351z"/>
</g>
</svg>
